<svg xmlns="http://www.w3.org/2000/svg" xmlns:xlink="http://www.w3.org/1999/xlink" viewBox="0 0 120 120" width="120" height="120" preserveAspectRatio="xMidYMid meet" style="width: 100%; height: 100%; transform: translate3d(0px, 0px, 0px); content-visibility: visible;"><defs><clipPath id="__lottie_element_1307"><rect width="120" height="120" x="0" y="0"></rect></clipPath><clipPath id="__lottie_element_1312"><path fill="#ffffff" clip-rule="nonzero" d=" M59.68299865722656,1.5 C27.687999725341797,1.5 1.75,27.437999725341797 1.75,59.43299865722656 C1.75,91.4280014038086 27.687999725341797,117.36599731445312 59.68299865722656,117.36599731445312 C91.6780014038086,117.36599731445312 117.61599731445312,91.4280014038086 117.61599731445312,59.43299865722656 C117.61599731445312,27.437999725341797 91.6780014038086,1.5 59.68299865722656,1.5" fill-opacity="1"></path></clipPath><clipPath id="__lottie_element_1315"><path fill="#ffffff" clip-rule="nonzero" d=" M59.138999938964844,2.25 C27.305999755859375,2.25 1.5,28.055999755859375 1.5,59.888999938964844 C1.5,91.72200012207031 27.305999755859375,117.52899932861328 59.138999938964844,117.52899932861328 C90.97200012207031,117.52899932861328 116.77899932861328,91.72200012207031 116.77899932861328,59.888999938964844 C116.77899932861328,28.055999755859375 90.97200012207031,2.25 59.138999938964844,2.25" fill-opacity="1"></path></clipPath></defs><g clip-path="url(#__lottie_element_1307)"><g transform="matrix(1,0,0,1,0,0)" opacity="1" style="display: block;"><g opacity="1" transform="matrix(1,0,0,1,60.06999969482422,59.308998107910156)"><path fill="rgb(23,55,70)" fill-opacity="1" d=" M57.869998931884766,0 C57.869998931884766,31.961000442504883 31.961000442504883,57.869998931884766 0,57.869998931884766 C-31.961000442504883,57.869998931884766 -57.869998931884766,31.961000442504883 -57.869998931884766,0 C-57.869998931884766,-31.961000442504883 -31.961000442504883,-57.869998931884766 0,-57.869998931884766 C31.961000442504883,-57.869998931884766 57.869998931884766,-31.961000442504883 57.869998931884766,0z"></path></g></g><g clip-path="url(#__lottie_element_1312)" transform="matrix(1,0,0,1,0,0)" opacity="1" style="display: block;"><g opacity="1" transform="matrix(1,0,0,1,0,0)"><g opacity="1" transform="matrix(1,0,0,1,94.14299774169922,93.53900146484375)"><path fill="rgb(27,123,125)" fill-opacity="1" d=" M-20.83099937438965,-16.621999740600586 C-20.83099937438965,-16.621999740600586 16.275999069213867,20.483999252319336 16.275999069213867,20.483999252319336 C16.275999069213867,20.483999252319336 20.83099937438965,20.483999252319336 20.83099937438965,20.483999252319336 C20.83099937438965,20.483999252319336 20.83099937438965,17.31599998474121 20.83099937438965,17.31599998474121 C20.83099937438965,17.31599998474121 -16.969999313354492,-20.483999252319336 -16.969999313354492,-20.483999252319336 C-16.969999313354492,-20.483999252319336 -20.83099937438965,-16.621999740600586 -20.83099937438965,-16.621999740600586z"></path></g><g opacity="1" transform="matrix(1,0,0,1,72.9489974975586,72.6709976196289)"><path fill="rgb(37,186,190)" fill-opacity="1" d=" M9.515999794006348,9.515999794006348 C9.515999794006348,9.515999794006348 9.515999794006348,9.515999794006348 9.515999794006348,9.515999794006348 C4.875,14.156999588012695 -2.6489999294281006,14.156999588012695 -7.289000034332275,9.515999794006348 C-7.289000034332275,9.515999794006348 -14.156999588012695,2.6480000019073486 -14.156999588012695,2.6480000019073486 C-14.156999588012695,2.6480000019073486 2.6480000019073486,-14.156999588012695 2.6480000019073486,-14.156999588012695 C2.6480000019073486,-14.156999588012695 9.515999794006348,-7.289000034332275 9.515999794006348,-7.289000034332275 C14.156999588012695,-2.6489999294281006 14.156999588012695,4.875 9.515999794006348,9.515999794006348z"></path></g><g opacity="1" transform="matrix(1,0,0,1,54.75699996948242,63.5369987487793)"><path fill="rgb(213,213,213)" fill-opacity="1" d=" M5.251999855041504,5.251999855041504 C5.251999855041504,5.251999855041504 5.251999855041504,5.251999855041504 5.251999855041504,5.251999855041504 C4.428999900817871,6.074999809265137 3.0940001010894775,6.074999809265137 2.2709999084472656,5.251999855041504 C2.2709999084472656,5.251999855041504 -5.250999927520752,-2.2699999809265137 -5.250999927520752,-2.2699999809265137 C-6.074999809265137,-3.0929999351501465 -6.074999809265137,-4.427999973297119 -5.250999927520752,-5.250999927520752 C-4.427999973297119,-6.074999809265137 -3.0929999351501465,-6.074999809265137 -2.2699999809265137,-5.250999927520752 C-2.2699999809265137,-5.250999927520752 5.251999855041504,2.2709999084472656 5.251999855041504,2.2709999084472656 C6.074999809265137,3.0940001010894775 6.074999809265137,4.428999900817871 5.251999855041504,5.251999855041504z"></path></g><g opacity="1" transform="matrix(1,0,0,1,63.814998626708984,54.479000091552734)"><path fill="rgb(213,213,213)" fill-opacity="1" d=" M5.251999855041504,5.251999855041504 C5.251999855041504,5.251999855041504 5.251999855041504,5.251999855041504 5.251999855041504,5.251999855041504 C4.428999900817871,6.074999809265137 3.0940001010894775,6.074999809265137 2.2709999084472656,5.251999855041504 C2.2709999084472656,5.251999855041504 -5.250999927520752,-2.2699999809265137 -5.250999927520752,-2.2699999809265137 C-6.074999809265137,-3.0929999351501465 -6.074999809265137,-4.427999973297119 -5.250999927520752,-5.250999927520752 C-4.427999973297119,-6.074999809265137 -3.0929999351501465,-6.074999809265137 -2.2699999809265137,-5.250999927520752 C-2.2699999809265137,-5.250999927520752 5.251999855041504,2.2709999084472656 5.251999855041504,2.2709999084472656 C6.074999809265137,3.0940001010894775 6.074999809265137,4.428999900817871 5.251999855041504,5.251999855041504z"></path></g><g opacity="1" transform="matrix(1,0,0,1,64.53800201416016,64.26000213623047)"><path fill="rgb(255,255,255)" fill-opacity="1" d=" M10.51099967956543,-5.197000026702881 C10.51099967956543,-5.197000026702881 -5.197000026702881,10.51099967956543 -5.197000026702881,10.51099967956543 C-6.166999816894531,11.480999946594238 -7.743000030517578,11.480999946594238 -8.71399974822998,10.51099967956543 C-8.71399974822998,10.51099967956543 -10.510000228881836,8.713000297546387 -10.510000228881836,8.713000297546387 C-11.480999946594238,7.743000030517578 -11.480999946594238,6.168000221252441 -10.510000228881836,5.197999954223633 C-10.510000228881836,5.197999954223633 5.197999954223633,-10.510000228881836 5.197999954223633,-10.510000228881836 C6.169000148773193,-11.480999946594238 7.743000030517578,-11.480999946594238 8.71399974822998,-10.510000228881836 C8.71399974822998,-10.510000228881836 10.51099967956543,-8.713000297546387 10.51099967956543,-8.713000297546387 C11.482000350952148,-7.742000102996826 11.482000350952148,-6.168000221252441 10.51099967956543,-5.197000026702881z"></path></g></g></g><g clip-path="url(#__lottie_element_1315)" transform="matrix(1,0,0,1,0,0)" opacity="1" style="display: block;"><g opacity="1" transform="matrix(1,0,0,1,39.25400161743164,39.28200149536133)"></g><g opacity="1" transform="matrix(1,0,0,1,0,0)"><g opacity="1" transform="matrix(1,0,0,1,29.24799919128418,29.266000747680664)"><path fill="rgb(27,123,125)" fill-opacity="1" d=" M-20.900999069213867,-21.226999282836914 C-20.900999069213867,-21.226999282836914 -20.900999069213867,-16.714000701904297 -20.900999069213867,-16.714000701904297 C-20.900999069213867,-16.714000701904297 17.038999557495117,21.226999282836914 17.038999557495117,21.226999282836914 C17.038999557495117,21.226999282836914 20.900999069213867,17.365999221801758 20.900999069213867,17.365999221801758 C20.900999069213867,17.365999221801758 -17.69099998474121,-21.226999282836914 -17.69099998474121,-21.226999282836914 C-17.69099998474121,-21.226999282836914 -20.900999069213867,-21.226999282836914 -20.900999069213867,-21.226999282836914z"></path></g><g opacity="1" transform="matrix(1,0,0,1,50.51100158691406,50.875999450683594)"><path fill="rgb(37,186,190)" fill-opacity="1" d=" M-9.515999794006348,-9.515999794006348 C-9.515999794006348,-9.515999794006348 -9.515999794006348,-9.515999794006348 -9.515999794006348,-9.515999794006348 C-4.875,-14.156999588012695 2.6480000019073486,-14.156999588012695 7.289000034332275,-9.515999794006348 C7.289000034332275,-9.515999794006348 14.156999588012695,-2.6480000019073486 14.156999588012695,-2.6480000019073486 C14.156999588012695,-2.6480000019073486 -2.6480000019073486,14.156999588012695 -2.6480000019073486,14.156999588012695 C-2.6480000019073486,14.156999588012695 -9.515999794006348,7.289000034332275 -9.515999794006348,7.289000034332275 C-14.156999588012695,2.6489999294281006 -14.156999588012695,-4.875 -9.515999794006348,-9.515999794006348z"></path></g><g opacity="1" transform="matrix(1,0,0,1,58.92300033569336,59.28799819946289)"><path fill="rgb(255,255,255)" fill-opacity="1" d=" M-10.510000228881836,5.197000026702881 C-10.510000228881836,5.197000026702881 5.197999954223633,-10.51099967956543 5.197999954223633,-10.51099967956543 C6.168000221252441,-11.480999946594238 7.743000030517578,-11.480999946594238 8.713000297546387,-10.51099967956543 C8.713000297546387,-10.51099967956543 10.510000228881836,-8.713000297546387 10.510000228881836,-8.713000297546387 C11.480999946594238,-7.742000102996826 11.480999946594238,-6.168000221252441 10.510000228881836,-5.197999954223633 C10.510000228881836,-5.197999954223633 -5.197000026702881,10.510000228881836 -5.197000026702881,10.510000228881836 C-6.168000221252441,11.480999946594238 -7.743000030517578,11.480999946594238 -8.71399974822998,10.510000228881836 C-8.71399974822998,10.510000228881836 -10.510000228881836,8.713000297546387 -10.510000228881836,8.713000297546387 C-11.480999946594238,7.742000102996826 -11.480999946594238,6.168000221252441 -10.510000228881836,5.197000026702881z"></path></g></g></g><g transform="matrix(1,0,0,1,60,60)" opacity="1" style="display: block;"><g opacity="1" transform="matrix(1,0,0,1,0,0)"><path stroke-linecap="butt" stroke-linejoin="miter" fill-opacity="0" stroke-miterlimit="4" stroke="rgb(255,154,24)" stroke-opacity="1" stroke-width="2" d=" M19.25,-12 C19.25,-12 29.25,-14.25 29.25,-14.25 C29.25,-14.25 29.229000091552734,-14.210000038146973 29.19099998474121,-14.13700008392334"></path></g></g><g transform="matrix(1,0,0,1,59,65)" opacity="1" style="display: block;"><g opacity="1" transform="matrix(1,0,0,1,0,0)"><path stroke-linecap="butt" stroke-linejoin="miter" fill-opacity="0" stroke-miterlimit="4" stroke="rgb(255,154,24)" stroke-opacity="1" stroke-width="2" d=" M11.75,-20.25 C11.75,-20.25 12.506999969482422,-27.51799964904785 12.843000411987305,-30.740999221801758"></path></g></g><g transform="matrix(1,0,0,1,60,60)" opacity="1" style="display: block;"><g opacity="1" transform="matrix(1,0,0,1,0,0)"><path stroke-linecap="butt" stroke-linejoin="miter" fill-opacity="0" stroke-miterlimit="4" stroke="rgb(255,154,24)" stroke-opacity="1" stroke-width="2" d=" M-10.5,16.75 C-10.5,16.75 -10.138999938964844,24.33799934387207 -10.029999732971191,26.613000869750977"></path></g></g><g transform="matrix(0.9553248286247253,-0.29555800557136536,0.29555800557136536,0.9553248286247253,55.750152587890625,56.00025939941406)" opacity="1" style="display: block;"><g opacity="1" transform="matrix(1,0,0,1,0,0)"><path stroke-linecap="butt" stroke-linejoin="miter" fill-opacity="0" stroke-miterlimit="4" stroke="rgb(255,154,24)" stroke-opacity="1" stroke-width="2" d=" M-15,12.25 C-15,12.25 -25.638999938964844,8.776000022888184 -27.086999893188477,8.303000450134277"></path></g></g><g transform="matrix(1.538450002670288,0,0,1.538450002670288,24.723787307739258,114.2283935546875)" opacity="0.4655999999999778" style="display: none;"><g opacity="1" transform="matrix(1,0,0,1,8.48900032043457,-19.01099967956543)"><path fill="rgb(255,154,24)" fill-opacity="1" d=" M0,-2.239000082015991 C1.2357041835784912,-2.239000082015991 2.239000082015991,-1.2357041835784912 2.239000082015991,0 C2.239000082015991,1.2357041835784912 1.2357041835784912,2.239000082015991 0,2.239000082015991 C-1.2357041835784912,2.239000082015991 -2.239000082015991,1.2357041835784912 -2.239000082015991,0 C-2.239000082015991,-1.2357041835784912 -1.2357041835784912,-2.239000082015991 0,-2.239000082015991z"></path></g></g><g transform="matrix(2.076900005340576,0,0,2.076900005340576,4.697578430175781,123.956787109375)" opacity="0.06559999999997786" style="display: none;"><g opacity="1" transform="matrix(1,0,0,1,8.48900032043457,-19.01099967956543)"><path fill="rgb(255,154,24)" fill-opacity="1" d=" M0,-2.239000082015991 C1.2357041835784912,-2.239000082015991 2.239000082015991,-1.2357041835784912 2.239000082015991,0 C2.239000082015991,1.2357041835784912 1.2357041835784912,2.239000082015991 0,2.239000082015991 C-1.2357041835784912,2.239000082015991 -2.239000082015991,1.2357041835784912 -2.239000082015991,0 C-2.239000082015991,-1.2357041835784912 -1.2357041835784912,-2.239000082015991 0,-2.239000082015991z"></path></g></g><g transform="matrix(1.5146499872207642,0,0,1.5146499872207642,62.173851013183594,44.02629089355469)" opacity="0.26573333333335725" style="display: none;"><g opacity="1" transform="matrix(1,0,0,1,8.48900032043457,-19.01099967956543)"><path fill="rgb(255,154,24)" fill-opacity="1" d=" M0,-2.239000082015991 C1.2357041835784912,-2.239000082015991 2.239000082015991,-1.2357041835784912 2.239000082015991,0 C2.239000082015991,1.2357041835784912 1.2357041835784912,2.239000082015991 0,2.239000082015991 C-1.2357041835784912,2.239000082015991 -2.239000082015991,1.2357041835784912 -2.239000082015991,0 C-2.239000082015991,-1.2357041835784912 -1.2357041835784912,-2.239000082015991 0,-2.239000082015991z"></path></g></g><g transform="matrix(1.5224499702453613,0,0,1.5224499702453613,81.60828399658203,77.6744613647461)" opacity="0.06559999999997786" style="display: none;"><g opacity="1" transform="matrix(1,0,0,1,8.48900032043457,-19.01099967956543)"><path fill="rgb(255,154,24)" fill-opacity="1" d=" M0,-2.239000082015991 C1.2357041835784912,-2.239000082015991 2.239000082015991,-1.2357041835784912 2.239000082015991,0 C2.239000082015991,1.2357041835784912 1.2357041835784912,2.239000082015991 0,2.239000082015991 C-1.2357041835784912,2.239000082015991 -2.239000082015991,1.2357041835784912 -2.239000082015991,0 C-2.239000082015991,-1.2357041835784912 -1.2357041835784912,-2.239000082015991 0,-2.239000082015991z"></path></g></g></g></svg>